<svg xmlns="http://www.w3.org/2000/svg" viewBox="0 0 64 64">
  <defs>
    <linearGradient id="grad1" x1="0%" y1="0%" x2="100%" y2="100%">
      <stop offset="0%" style="stop-color:#FF6B6B;stop-opacity:1" />
      <stop offset="100%" style="stop-color:#FF8E53;stop-opacity:1" />
    </linearGradient>
  </defs>
  <rect x="8" y="20" width="48" height="36" rx="4" ry="4" fill="#FFD93D" stroke="#F4C724" stroke-width="2"/>
  <rect x="28" y="20" width="8" height="36" fill="#FF6B6B"/>
  <path d="M8 20 L32 20 L32 8 C32 4 28 4 28 8 C28 12 32 20 32 20 Z" fill="#FF6B6B"/>
  <path d="M56 20 L32 20 L32 8 C32 4 36 4 36 8 C36 12 32 20 32 20 Z" fill="#FF6B6B"/>
  <path d="M32 36 L38 30 A 3 3 0 0 1 42 34 L32 44 L22 34 A 3 3 0 0 1 26 30 Z" fill="white" opacity="0.8"/>
</svg>
